<svg xmlns="http://www.w3.org/2000/svg" fill-rule="evenodd" stroke-linejoin="round" stroke-miterlimit="1" clip-rule="evenodd" viewBox="0 0 1024 1024">
  <path d="M513 62c191 2 361 123 424 303 66 194-8 409-178 523a460 460 0 0 1-611-112 459 459 0 0 1 54-591c84-79 196-123 311-123Zm-2 43a413 413 0 0 0-404 368 413 413 0 0 0 287 429c191 56 397-35 485-214 46-95 53-209 18-309a416 416 0 0 0-384-274h-2Z"/>
  <path d="M384 702v-46l42-31a903 903 0 0 0 94-82c14-15 25-32 34-49s13-34 13-52-5-33-14-45c-10-11-25-17-45-17-16 0-28 4-38 11-10 8-17 18-21 30-5 13-8 26-8 40l-59-4c0-18 3-34 8-50 6-16 14-31 25-43a118 118 0 0 1 95-42c23 0 43 5 60 15 18 9 32 23 42 41a154 154 0 0 1 4 118c-6 18-16 35-28 51-12 17-26 32-42 47a451 451 0 0 1-114 76l16-24h193v56H384Z" style="fill-rule:nonzero"/>
</svg>