<svg xmlns="http://www.w3.org/2000/svg" fill-rule="evenodd" stroke-linejoin="round" stroke-miterlimit="1" clip-rule="evenodd" viewBox="0 0 1024 1024">
  <path d="m954 954-892 8 8-892 892-8-8 892ZM118 118l-8 796 796-8 8-796-796 8Z"/>
  <path d="m581 326-94 146-8-10 22-8c7-2 14-3 22-3a126 126 0 0 1 110 63c11 19 17 40 17 64 0 25-6 47-19 66-12 20-28 35-49 46-20 12-43 17-67 17-25 0-48-5-68-17-21-11-38-26-50-46a122 122 0 0 1-13-102c4-12 9-24 16-34l112-182h69Zm-66 178c-14 0-26 3-38 10-11 6-20 14-27 25s-10 24-10 39a71 71 0 0 0 75 72c13 0 26-3 37-9a71 71 0 0 0 37-64 70 70 0 0 0-37-64c-11-6-23-9-37-9Z" style="fill-rule:nonzero"/>
</svg>