<svg viewBox="0 0 1024 1024" xmlns="http://www.w3.org/2000/svg" fill-rule="evenodd" clip-rule="evenodd" stroke-linejoin="round" stroke-miterlimit="1"><path d="M939,512L512,1024L85,512L512,0L939,512ZM148,512L512,949L876,512L512,75L148,512Z"/><path d="M512,707.105C488.386,707.105 466.121,702.803 445.205,694.199C424.288,685.596 407.368,672.708 394.445,655.535C381.521,638.361 375.059,616.995 375.059,591.435C375.059,570.701 379.901,552.161 389.585,535.815C399.268,519.469 413.54,506.689 432.401,497.475C420.594,490.061 411.199,480.324 404.215,468.264C397.232,456.204 393.74,442.001 393.74,425.655C393.74,403.549 399.392,384.72 410.695,369.17C421.999,353.62 436.687,341.668 454.76,333.315C472.833,324.962 492.02,320.785 512.321,320.785C533.493,320.785 553.025,325.07 570.915,333.64C588.805,342.209 603.097,354.378 613.79,370.145C624.483,385.911 629.83,404.738 629.83,426.625C629.83,442.971 626.463,457.013 619.73,468.749C612.997,480.486 603.62,490.061 591.599,497.475C610.46,506.689 624.732,519.469 634.415,535.815C644.099,552.161 648.941,570.701 648.941,591.435C648.941,616.995 642.479,638.361 629.555,655.535C616.632,672.708 599.802,685.596 579.065,694.199C558.329,702.803 535.974,707.105 512,707.105ZM512,650.295C526.473,650.295 539.488,647.865 551.045,643.005C562.601,638.145 571.781,630.908 578.585,621.295C585.388,611.682 588.79,599.785 588.79,585.605C588.79,572.065 585.513,560.525 578.96,550.985C572.407,541.445 563.352,534.139 551.795,529.065C540.239,523.991 526.974,521.454 512,521.454C497.026,521.454 483.761,523.991 472.205,529.065C460.648,534.139 451.54,541.445 444.88,550.985C438.22,560.525 434.89,572.065 434.89,585.605C434.89,599.785 438.345,611.682 445.255,621.295C452.165,630.908 461.454,638.145 473.12,643.005C484.786,647.865 497.746,650.295 512,650.295ZM512.65,480.625C529.643,480.625 543.521,476.053 554.285,466.91C565.048,457.767 570.43,445.708 570.43,430.734C570.43,414.821 565.228,402.023 554.825,392.339C544.421,382.656 530.253,377.814 512.321,377.814C501.161,377.814 491.171,379.866 482.351,383.969C473.531,388.073 466.584,393.958 461.51,401.625C456.436,409.292 453.899,418.562 453.899,429.435C453.899,445.061 459.335,457.499 470.205,466.75C481.075,476 495.223,480.625 512.65,480.625Z" style="fill-rule:nonzero;"/></svg>