<svg xmlns="http://www.w3.org/2000/svg" fill-rule="evenodd" stroke-linejoin="round" stroke-miterlimit="1" clip-rule="evenodd" viewBox="0 0 1024 1024">
  <path d="m1024 512-512 512L0 512 512 0l512 512Zm-956 0 444 444 444-444L512 68 68 512Z"/>
  <path d="M372 701V401l17 30H275v-48h60c12 0 21-2 27-8 7-5 10-14 10-27v-24h60v377h-60ZM622 705c-23 0-42-4-57-12-16-8-28-19-38-32-9-14-16-29-21-46s-9-35-10-53a531 531 0 0 1-1-102c2-17 5-35 10-51 5-17 12-32 22-46 9-13 22-24 37-32s34-12 57-12c22 0 41 4 56 12 15 7 28 18 37 31 10 14 17 29 22 45 5 17 9 34 11 52a496 496 0 0 1-11 157c-5 17-12 32-22 46-9 13-22 24-37 31-15 8-33 12-55 12Zm0-57c17 0 31-6 41-18 9-13 16-29 20-49a377 377 0 0 0-1-138c-3-20-10-37-20-49a50 50 0 0 0-41-18c-14 0-25 4-34 11s-15 17-20 30c-5 12-8 27-10 43a454 454 0 0 0 0 104c2 16 6 30 10 43 5 12 12 22 21 30 8 7 20 11 34 11Z" style="fill-rule:nonzero"/>
</svg>