<svg xmlns="http://www.w3.org/2000/svg" fill-rule="evenodd" stroke-linejoin="round" stroke-miterlimit="1" clip-rule="evenodd" viewBox="0 0 1024 1024">
  <path d="m1024 512-512 512L0 512 512 0l512 512Zm-956 0 444 444 444-444L512 68 68 512Z"/>
  <path d="m369 701 240-377h43L412 701h-43Zm237 5a80 80 0 0 1-71-42c-8-13-11-29-11-46s3-33 10-46a79 79 0 0 1 71-41c16 0 29 4 42 12 12 7 22 18 30 31 7 13 11 28 11 44a90 90 0 0 1-40 76c-13 8-27 12-42 12Zm0-41c8 0 15-2 21-6s11-10 15-17c3-7 5-15 5-24s-2-18-6-24c-3-7-8-13-15-17-6-3-13-5-21-5a39 39 0 0 0-35 21c-4 7-6 15-6 25s2 19 6 26a40 40 0 0 0 36 21ZM420 493a82 82 0 0 1-72-41c-8-13-12-28-12-45 0-18 4-33 12-47a81 81 0 0 1 142 2c7 13 11 28 11 45a89 89 0 0 1-40 75c-12 7-26 11-41 11Zm0-40c7 0 14-2 20-6s11-10 14-17a52 52 0 0 0 0-48c-4-7-9-13-15-16a41 41 0 0 0-41 0c-7 3-12 8-15 15-4 7-6 15-6 26 0 9 2 18 6 25s9 12 15 15c7 4 14 6 22 6Z" style="fill-rule:nonzero"/>
</svg>