<svg xmlns="http://www.w3.org/2000/svg" fill-rule="evenodd" stroke-linejoin="round" stroke-miterlimit="1" clip-rule="evenodd" viewBox="0 0 1024 1024">
  <path d="m813 98 186 256v316L813 926l-301 98-301-98L25 670V354L211 98 512 0l301 98Zm-572 41L73 369v286l168 230 271 89 271-89 168-230V369L783 139 512 50l-271 89Z"/>
  <path d="M358 702V403l17 30H261v-48h60c12 0 21-3 27-8 7-5 10-14 10-27v-24h60v376h-60ZM506 702v-46l42-31a903 903 0 0 0 94-82c14-15 25-32 34-49s13-34 13-52-5-33-14-44c-10-12-25-18-45-18-16 0-28 4-38 11-10 8-17 18-21 30-5 13-8 26-8 40l-59-4c0-18 3-34 8-50 6-16 14-31 25-43a118 118 0 0 1 95-42c23 0 43 5 60 15 18 9 32 23 42 41 9 17 14 38 14 62 0 19-3 38-10 56-6 18-16 35-28 52a451 451 0 0 1-156 122l16-24h193v56H506Z" style="fill-rule:nonzero"/>
</svg>