<!-- https://game-icons.net/1x1/lorc/squib.html -->
<svg xmlns="http://www.w3.org/2000/svg" fill-rule="evenodd" stroke-linejoin="round" stroke-miterlimit="1" clip-rule="evenodd" viewBox="0 0 1024 1024">
  <path d="M1024 973H0L512 51l512 922ZM81 925h862L512 150 81 925Z"/>
  <path d="m453 779-16-23-128 51 106-128-91-78 118 11-27-136 95 98 71-87-7 109 141 20-121 63 137 56-107-6 91 110-173-86-44 102-45-76Zm27-33 30-51-62 26c3 14 16 24 32 25Zm90-2c14-8 20-22 16-36l-16 7-29-15 13 22-10 6 26 16Zm-56-16 20-4-10-32-10 36Zm-14-50-2-18 20-3-33-46c-30 3-45 29-33 60l48 7Zm27-16 44-14c2-10-2-18-11-21l6-7c-4-12-14-16-26-11l-4 41-9 12Z"/>
</svg>