<svg xmlns="http://www.w3.org/2000/svg" fill-rule="evenodd" stroke-linejoin="round" stroke-miterlimit="1" clip-rule="evenodd" viewBox="0 0 1024 1024">
  <path d="M1024 973H0L512 51l512 922ZM81 925h862L512 150 81 925Z"/>
  <path d="M512 452c-119 0-214 106-185 222 8 28 16 54 25 77-14 16-8 48 5 62 9 9 22 25 38 31 13-1 50-4 49 36 13 4 27 8 42 10l29 2h6l28-3c13-2 26-5 38-9v-9c-2-40 44-32 50-31 18-7 32-23 41-33 15-16 21-48 5-63l-2-2c6-17 12-38 16-58 27-116-66-232-185-232Zm-46 285c-20 15-42 44-69 27-27-16-28-77-13-102 14-20 93-16 103 2 11 18 0 59-21 73Zm73 74c-2 7-17-3-25-8-6 5-23 15-25 8 2-26 10-52 20-76l2-4 3-2 3 2 2 4c4 4 24 66 20 75v1Zm97-52c-26 18-51-9-71-23-22-12-35-52-26-70 9-19 88-29 102-10 19 24 21 84-5 103Z" style="fill:#010101"/>
</svg>