<svg xmlns="http://www.w3.org/2000/svg" fill-rule="evenodd" stroke-linejoin="round" stroke-miterlimit="1" clip-rule="evenodd" viewBox="0 0 1024 1024">
  <path d="m372 279 9 9 4 5c4 5 9 10 12 16l3 6 3 7 2 4c13 36 7 74-13 105l1 2c23 16 41 41 52 72 12 32 13 66 4 99l-5 11-7 15v3l1 4 4 4c6 1 12-3 17-4l18-6h3l64-17 1-2c58-12 110-43 148-89l3-2c4-4 9-7 9-12l-2-5-2-8-3-6-7-21v-10l2-29v-11c-2-7-4-13-4-20 1-9 11-16 18-17l5-2c5 0 9 3 10 8l13-13 2-1c5-5 12-12 21-12 13 1 65 37 75 44 2 1 17 10 21 22 2 8-9 40-16 58-10 24-22 54-29 60-3 6-9 12-13 15l-9 7-86 86-27 26c-37 36-77 70-119 99l-15 9-3 1c-21 10-42 18-65 25l-38 7-1 1-4 1-8 5-3 2c-5 2-8 3-13 3-7 2-14-1-20-5-8-6-15-13-21-21l-5-6h-1l-13-17-7-10c-38-55-70-115-94-178l-6-16-17-45-4-9-9-24-22-67-1-5-8-19c-4-14-6-29-7-44l1-14c6-42 36-79 79-95 45-16 90-6 122 21Z"/>
  <path d="M514 0c243 3 454 178 502 417a522 522 0 0 1-407 598c-130 25-267-3-377-74A519 519 0 0 1 0 516C0 235 232 2 514 0Zm-4 48A474 474 0 0 0 51 577c18 130 96 252 207 324 101 65 226 89 343 66a472 472 0 0 0 329-254c62-129 61-285-5-413A475 475 0 0 0 510 48Z"/>
</svg>