<svg xmlns="http://www.w3.org/2000/svg" fill-rule="evenodd" stroke-linejoin="round" stroke-miterlimit="1" clip-rule="evenodd" viewBox="0 0 1024 1024">
  <path d="M219 227c139 89 267 157 415 173 53 5 62 45 41 89-34 75 21 186 145 252-7 36-60 66-92 56-26-56-68-114-113-98-92 33-187 39-251 4 86-11 167-34 238-70-129 20-283 20-340-44 107 4 214-8 319-34-142-13-298-39-342-126 105 33 245 45 340 46-148-38-346-139-360-248Z"/>
  <path d="M514 0c243 3 454 178 502 417a522 522 0 0 1-407 598c-130 25-267-3-377-74A519 519 0 0 1 0 516C0 235 232 2 514 0Zm-4 48A474 474 0 0 0 51 577c18 130 96 252 207 324 101 65 226 89 343 66a472 472 0 0 0 329-254c62-129 61-285-5-413A475 475 0 0 0 510 48Z"/>
</svg>