<!-- https://game-icons.net/1x1/lorc/knife-fork.html -->
<svg xmlns="http://www.w3.org/2000/svg" fill-rule="evenodd" stroke-linejoin="round" stroke-miterlimit="1" clip-rule="evenodd" viewBox="0 0 1024 1024">
  <path d="M514 0c243 3 454 178 502 417a522 522 0 0 1-407 598c-130 25-267-3-377-74A519 519 0 0 1 0 516C0 235 232 2 514 0Zm-4 48A474 474 0 0 0 51 577c18 130 96 252 207 324 101 65 226 89 343 66a472 472 0 0 0 329-254c62-129 61-285-5-413A475 475 0 0 0 510 48Z"/>
  <path d="M498 581 280 811c-24 5-46-5-54-13s-19-30-13-54l229-219 56 56Zm37-144 25-24 6-6-3-7c-8-18-8-35 7-50l138-138 17 17-90 89 27 27 90-89 17 16-90 90 27 27 90-89 16 16-138 138c-14 14-32 14-51 6l-8-3-6 6-23 25-51-51ZM260 209l527 526c6 26-5 63-14 71-8 8-24 12-48 6L478 514l-3-4h-5c-67-9-142-63-189-127-23-32-45-66-45-95 0-40 13-61 24-79Z"/>
</svg>