<svg xmlns="http://www.w3.org/2000/svg" fill-rule="evenodd" stroke-linejoin="round" stroke-miterlimit="1" clip-rule="evenodd" viewBox="0 0 1024 1024">
  <path d="M514 0c243 3 454 178 502 417a522 522 0 0 1-407 598c-130 25-267-3-377-74A519 519 0 0 1 0 516C0 235 232 2 514 0Zm-4 48A474 474 0 0 0 51 577c18 130 96 252 207 324 101 65 226 89 343 66a472 472 0 0 0 329-254c62-129 61-285-5-413A475 475 0 0 0 510 48Z"/>
  <path d="M286 197v37l454 1v-36l-454-2Zm52 73c5 53 32 107 67 149 19 23 40 42 59 55 11 8 21 13 30 16v44c-9 3-19 8-30 15-19 13-41 32-60 55-35 42-63 95-68 148l350 2c-5-53-32-107-67-149-19-23-40-42-59-55-11-8-21-13-30-16v-44c9-3 19-8 30-15 19-13 41-32 60-55 35-42 63-95 68-148l-350-2Zm-54 519v36l454 2v-36l-454-2Z" style="fill-rule:nonzero"/>
</svg>