<svg xmlns="http://www.w3.org/2000/svg" fill-rule="evenodd" stroke-linejoin="round" stroke-miterlimit="1" clip-rule="evenodd" viewBox="0 0 1024 1024">
  <path d="M514 0c243 3 454 178 502 417a522 522 0 0 1-407 598c-130 25-267-3-377-74A519 519 0 0 1 0 516C0 235 232 2 514 0Zm-4 48A474 474 0 0 0 51 577c18 130 96 252 207 324 101 65 226 89 343 66a472 472 0 0 0 329-254c62-129 61-285-5-413A475 475 0 0 0 510 48Z"/>
  <path d="M318 573c0 98 69 157 169 167v65h54v-64c94-5 165-52 165-140 0-74-42-117-134-133l-31-6V361c34 10 59 37 61 77l95-3c-2-90-57-148-156-158v-58h-54v56c-98 7-158 59-158 142 0 77 50 117 122 129l36 6v103c-39-10-69-37-72-85l-97 3Zm286 35c0 29-24 47-63 51v-97c39 6 63 17 63 46ZM431 408c0-31 20-47 56-51v96c-33-6-56-16-56-45Z" style="fill-rule:nonzero"/>
</svg>