<svg xmlns="http://www.w3.org/2000/svg" fill-rule="evenodd" stroke-linejoin="round" stroke-miterlimit="1" clip-rule="evenodd" viewBox="0 0 1024 1024">
  <path d="M514 0c243 3 454 178 502 417a522 522 0 0 1-407 598c-130 25-267-3-377-74A519 519 0 0 1 0 516C0 235 232 2 514 0Zm-4 48A474 474 0 0 0 51 577c18 130 96 252 207 324 101 65 226 89 343 66a472 472 0 0 0 329-254c62-129 61-285-5-413A475 475 0 0 0 510 48Z"/>
  <path d="m512 145 86 265h279L651 574l87 265-226-164-226 164 87-265-226-164h279l86-265Z"/>
</svg>