<svg xmlns="http://www.w3.org/2000/svg" fill-rule="evenodd" stroke-linejoin="round" stroke-miterlimit="1" clip-rule="evenodd" viewBox="0 0 1024 1024">
  <path d="M514 0c243 3 454 178 502 417a522 522 0 0 1-407 598c-130 25-267-3-377-74A519 519 0 0 1 0 516C0 235 232 2 514 0Zm-4 48A474 474 0 0 0 51 577c18 130 96 252 207 324 101 65 226 89 343 66a472 472 0 0 0 329-254c62-129 61-285-5-413A475 475 0 0 0 510 48Z"/>
  <path d="m512 210 301 172-301 173-301-173 301-172ZM263 482l241 138c5 3 11 3 16 0l241-138 52 30-301 172-301-172 52-30Zm0 130 241 138c5 3 11 3 16 0l241-138 52 30-301 172-301-172 52-30Z" style="fill-rule:nonzero"/>
</svg>