<!-- https://game-icons.net/1x1/lorc/drop.html -->
<svg xmlns="http://www.w3.org/2000/svg" fill-rule="evenodd" stroke-linejoin="round" stroke-miterlimit="1" clip-rule="evenodd" viewBox="0 0 1024 1024">
  <path d="M514 0c243 3 454 178 502 417a522 522 0 0 1-407 598c-130 25-267-3-377-74A519 519 0 0 1 0 516C0 235 232 2 514 0Zm-4 48A474 474 0 0 0 51 577c18 130 96 252 207 324 101 65 226 89 343 66a472 472 0 0 0 329-254c62-129 61-285-5-413A475 475 0 0 0 510 48Z"/>
  <path d="M514 192c45 254 171 322 171 493 0 85-84 147-171 147-86 0-175-66-175-155 0-179 131-230 175-485Zm112 544c-19 12-42 19-66 19-78 0-141-73-141-163 0-36 10-69 27-96-45 28-75 82-75 144 0 91 63 164 141 164 47 0 89-27 114-68Z" style="fill-rule:nonzero"/>
</svg>