<!-- https://game-icons.net/1x1/skoll/atom.html -->
<svg viewBox="0 0 1024 1024" xmlns="http://www.w3.org/2000/svg" fill-rule="evenodd" clip-rule="evenodd" stroke-linejoin="round" stroke-miterlimit="1"><path d="M514,0C757,3 968,178 1016,417C1063.62,691.802 882.113,958.489 609,1015C479,1040 342,1012 232,941C89.402,846.383 2.46,687.115 0,516C0,235 232,2 514,0ZM510,48C254.72,53.157 47.534,264.572 47.534,519.904C47.534,538.988 48.691,558.055 51,577C69,707 147,829 258,901C359,966 484,990 601,967C743.948,937.796 865.566,843.902 930,713C992,584 991,428 925,300C843.566,146.364 683.878,49.396 510,48Z"/><path d="M298.302,512C256.51,477.227 224.94,444.012 207.19,416.357C184.085,380.361 182.82,349.212 194.626,328.764C206.432,308.315 234.04,293.837 276.765,295.848C309.591,297.393 354.14,308.126 405.151,326.932C414.37,273.353 427.35,229.405 442.424,200.205C462.045,162.198 488.388,145.528 512,145.528C535.612,145.528 561.955,162.198 581.576,200.205C596.65,229.405 609.63,273.353 618.849,326.932C669.86,308.126 714.409,297.393 747.235,295.848C789.96,293.837 817.568,308.315 829.374,328.764C841.18,349.212 839.915,380.361 816.81,416.357C799.06,444.012 767.49,477.227 725.698,512C767.49,546.773 799.06,579.988 816.81,607.643C839.915,643.639 841.18,674.788 829.374,695.236C817.568,715.685 789.96,730.163 747.235,728.152C714.409,726.607 669.86,715.874 618.849,697.068C609.63,750.647 596.65,794.595 581.576,823.795C561.955,861.802 535.612,878.472 512,878.472C488.388,878.472 462.045,861.802 442.424,823.795C427.35,794.595 414.37,750.647 405.151,697.068C354.14,715.874 309.591,726.607 276.765,728.152C234.04,730.163 206.432,715.685 194.626,695.236C182.82,674.788 184.085,643.639 207.19,607.643C224.94,579.988 256.51,546.773 298.302,512ZM700.359,491.701C776.167,429.792 817.886,372.865 801.661,344.764C785.437,316.663 715.278,324.328 623.759,359.026C627.306,385.326 629.988,413.459 631.641,442.925C656.333,459.09 679.356,475.479 700.359,491.701ZM323.641,532.299C247.833,594.208 206.114,651.135 222.339,679.236C238.563,707.337 308.722,699.672 400.241,664.974C396.694,638.674 394.012,610.541 392.359,581.075C367.667,564.91 344.644,548.521 323.641,532.299ZM477.052,392.22C461.261,384.614 445.784,377.618 430.747,371.265C428.73,387.465 427.05,404.366 425.742,421.844C434.084,416.761 442.581,411.719 451.222,406.73C459.863,401.741 468.479,396.903 477.052,392.22ZM390.793,482.376C376.311,492.248 362.514,502.154 349.493,512C362.514,521.846 376.311,531.752 390.793,541.624C390.563,531.858 390.445,521.978 390.445,512C390.445,502.022 390.563,492.142 390.793,482.376ZM435.4,685.273C451.111,781.88 479.552,846.472 512,846.472C544.448,846.472 572.889,781.88 588.6,685.273C564.05,675.195 538.345,663.451 512,650.149C485.655,663.451 459.95,675.195 435.4,685.273ZM588.6,338.727C572.889,242.12 544.448,177.528 512,177.528C479.552,177.528 451.111,242.12 435.4,338.727C459.95,348.805 485.655,360.549 512,373.851C538.345,360.549 564.05,348.805 588.6,338.727ZM598.258,421.844C596.95,404.366 595.27,387.465 593.253,371.265C578.216,377.618 562.739,384.614 546.948,392.22C555.521,396.903 564.137,401.741 572.778,406.73C581.419,411.719 589.916,416.761 598.258,421.844ZM633.207,541.624C647.689,531.752 661.486,521.846 674.507,512C661.486,502.154 647.689,492.248 633.207,482.376C633.437,492.142 633.555,502.022 633.555,512C633.555,521.978 633.437,531.858 633.207,541.624ZM400.241,359.026C308.722,324.328 238.563,316.663 222.339,344.764C206.114,372.865 247.833,429.792 323.641,491.701C344.644,475.479 367.667,459.09 392.359,442.925C394.012,413.459 396.694,385.326 400.241,359.026ZM623.759,664.974C715.278,699.672 785.437,707.337 801.661,679.236C817.886,651.135 776.167,594.208 700.359,532.299C679.356,548.521 656.333,564.91 631.641,581.075C629.988,610.541 627.306,638.674 623.759,664.974ZM546.948,631.78C562.739,639.386 578.216,646.382 593.253,652.735C595.27,636.535 596.95,619.634 598.258,602.156C589.916,607.239 581.419,612.281 572.778,617.27C564.137,622.259 555.521,627.097 546.948,631.78ZM425.742,602.156C427.05,619.634 428.73,636.535 430.747,652.735C445.784,646.382 461.261,639.386 477.052,631.78C468.479,627.097 459.863,622.259 451.222,617.27C442.581,612.281 434.084,607.239 425.742,602.156ZM512,409.792C497.227,417.53 482.269,425.756 467.222,434.443C452.176,443.13 437.574,451.971 423.486,460.896C422.8,477.559 422.445,494.626 422.445,512C422.445,529.374 422.8,546.441 423.486,563.104C437.574,572.029 452.176,580.87 467.222,589.557C482.269,598.244 497.227,606.47 512,614.208C526.773,606.47 541.731,598.244 556.778,589.557C571.824,580.87 586.426,572.029 600.514,563.104C601.2,546.441 601.555,529.374 601.555,512C601.555,494.626 601.2,477.559 600.514,460.896C586.426,451.971 571.824,443.13 556.778,434.443C541.731,425.756 526.773,417.53 512,409.792ZM512,464C538.492,464 560,485.508 560,512C560,538.492 538.492,560 512,560C485.508,560 464,538.492 464,512C464,485.508 485.508,464 512,464Z"/></svg>