<!-- https://game-icons.net/1x1/lorc/bleeding-wound.html -->
<svg xmlns="http://www.w3.org/2000/svg" xml:space="preserve" style="fill-rule:evenodd;clip-rule:evenodd;stroke-linejoin:round;stroke-miterlimit:2" viewBox="0 0 1024 1024">
  <path d="M514 0c243 3 454 178 502 417a522 522 0 0 1-407 598c-130 25-267-3-377-74A519 519 0 0 1 0 516C0 235 232 2 514 0Zm-4 48A474 474 0 0 0 48 520a472 472 0 0 0 3 57c18 130 96 252 207 324 101 65 226 89 343 66a472 472 0 0 0 329-254c62-129 61-285-5-413A475 475 0 0 0 510 48Z"/>
  <path d="M236 216c3-1 16 12 18 15 85 127 265 187 411 202 61 6 115 4 155-3 26-5 45-12 56-22a7 7 0 0 1 12 6c-4 42-33 52-65 60-26 7-54 13-63 43 2 17 6 29 10 38 4 12 7 22 7 36 0 17-13 29-25 29s-26-12-26-31c0-14 4-24 8-35 3-9 8-20 10-37 0-7-5-12-11-16-9-5-21-9-34-10-24-4-53-2-75 7-12 6-19 13-24 23 7 48 20 46 20 85 0 16-5 28-12 36-5 7-12 10-19 10-6 0-13-3-19-10-7-9-12-22-12-38 0-41 29-71 21-85-7-13-36-42-56-42-21 0-66 90-66 90s-24-47-37-58c-12-11-41-9-48-8-6 1-11 6-16 14-6 11-10 26-11 48 9 109 32 133 32 213 0 47-22 65-40 65-20 0-41-16-41-61 0-76 23-107 32-214-15-151-73-267-92-331-1-3-3-19 0-19Zm200 428 21-62s17 49 23 61 11 23 11 40c0 21-17 35-33 35-17 0-32-14-32-33 0-16 4-28 10-41Z"/>
</svg>