<svg xmlns="http://www.w3.org/2000/svg" fill-rule="evenodd" stroke-linejoin="round" stroke-miterlimit="1" clip-rule="evenodd" viewBox="0 0 1024 1024">
  <path d="M69 592H0V432h69c12-65 37-125 73-177l-49-48L207 93l48 49c52-36 112-61 177-73V0h160v69c65 12 125 37 177 73l48-49 114 114-49 48c36 52 61 112 73 177h69v160h-69c-12 65-37 125-73 177l49 48-114 114-48-49c-52 36-112 61-177 73v69H432v-69c-65-12-125-37-177-73l-48 49L93 817l49-48c-36-52-61-112-73-177Zm443-470a414 414 0 0 0-390 390c0 199 191 390 390 390s390-191 390-390-191-390-390-390Z"/>
  <path d="M512 245c-144 0-260 129-224 270 9 34 19 65 30 93-17 19-10 58 6 75 11 11 27 31 46 38 16-2 61-5 59 43 16 5 33 10 51 13l35 2h8l34-4c15-2 31-6 46-11v-10c-2-49 53-39 61-38 21-8 39-28 49-40 19-19 26-58 6-77l-2-2c7-21 14-46 20-71 32-140-81-281-225-281Zm-56 346c-24 18-51 53-84 33s-34-94-15-124c16-25 113-19 125 2 13 22 0 72-26 89Zm89 90c-3 8-21-4-31-10-7 6-27 18-30 10 3-32 12-63 24-93l3-5 3-2 4 2 3 5c4 5 28 80 24 91v2Zm118-63c-32 21-62-11-87-28-26-15-42-64-31-85 11-23 106-36 124-12 22 29 25 102-6 125Z" style="fill:#010101"/>
</svg>