<svg xmlns="http://www.w3.org/2000/svg" fill-rule="evenodd" stroke-linejoin="round" stroke-miterlimit="1" clip-rule="evenodd" viewBox="0 0 1024 1024">
  <path d="M512 448a64 64 0 1 1 0 128 64 64 0 0 1 0-128Zm416 112H672v-96h256v96Zm-576 0H96v-96h256v96ZM560 96v256h-96V96h96Zm0 576v256h-96V672h96Z"/>
  <path d="M69 592H0V432h69c12-65 37-125 73-177l-49-48L207 93l48 49c52-36 112-61 177-73V0h160v69c65 12 125 37 177 73l48-49 114 114-49 48c36 52 61 112 73 177h69v160h-69c-12 65-37 125-73 177l49 48-114 114-48-49c-52 36-112 61-177 73v69H432v-69c-65-12-125-37-177-73l-48 49L93 817l49-48c-36-52-61-112-73-177Zm443-470a414 414 0 0 0-390 390c0 199 191 390 390 390s390-191 390-390-191-390-390-390Z"/>
</svg>