<!-- https://game-icons.net/1x1/sbed/ammo-box.html -->
<svg xmlns="http://www.w3.org/2000/svg" fill-rule="evenodd" stroke-linejoin="round" stroke-miterlimit="1" clip-rule="evenodd" viewBox="0 0 1024 1024">
  <path d="M698 620v37h-85v-37h85Zm-81-24V449c0-54 42-84 42-84s42 30 42 84v147h-84Zm-294 0V449c0-54 42-84 42-84s42 30 42 84v147h-84Zm147 0V449c0-54 42-84 42-84s42 30 42 84v147h-84Zm-4 24h85v37h-85v-37Zm-147 0h85v37h-85v-37Z"/>
  <path d="M69 592H0V432h69c12-65 37-125 73-177l-49-48L207 93l48 49c52-36 112-61 177-73V0h160v69c65 12 125 37 177 73l48-49 114 114-49 48c36 52 61 112 73 177h69v160h-69c-12 65-37 125-73 177l49 48-114 114-48-49c-52 36-112 61-177 73v69H432v-69c-65-12-125-37-177-73l-48 49L93 817l49-48c-36-52-61-112-73-177Zm443-470a414 414 0 0 0-390 390c0 199 191 390 390 390s390-191 390-390-191-390-390-390Z"/>
</svg>