<svg xmlns="http://www.w3.org/2000/svg" fill-rule="evenodd" stroke-linejoin="round" stroke-miterlimit="1" clip-rule="evenodd" viewBox="0 0 1024 1024">
  <path d="M466 350c71 0 140 31 195 75 25 19 48 40 69 64l19-8 5-1h5c8 0 16 5 20 11l2 5 1 5v3l-10 147c0 7-1 10-4 14-6 7-16 11-25 8l-5-1-4-2-122-86-2-2-4-5-1-2c-5-8-3-18 1-24l3-3 4-4 3-1 9-5c-24-32-53-62-82-87-26-21-52-40-82-49-8-2-15-4-23-3l-8 2c-14 3-24 17-29 29-10 19-13 40-16 61v1c0 4-1 6-4 9l-5 6-6 4-2 1-33 14-59 27-2 1h-2l-5 1h-5l-6-1c-8-4-14-12-14-22v-3l3-10a226 226 0 0 1 221-169Z"/>
  <path d="M69 592H0V432h69c12-65 37-125 73-177l-49-48L207 93l48 49c52-36 112-61 177-73V0h160v69c65 12 125 37 177 73l48-49 114 114-49 48c36 52 61 112 73 177h69v160h-69c-12 65-37 125-73 177l49 48-114 114-48-49c-52 36-112 61-177 73v69H432v-69c-65-12-125-37-177-73l-48 49L93 817l49-48c-36-52-61-112-73-177Zm443-470a414 414 0 0 0-390 390c0 199 191 390 390 390s390-191 390-390-191-390-390-390Z"/>
</svg>