<svg xmlns="http://www.w3.org/2000/svg" fill-rule="evenodd" stroke-linejoin="round" stroke-miterlimit="1" clip-rule="evenodd" viewBox="0 0 1024 1024">
  <path d="M318 573c0 98 69 157 169 167v65h54v-64c94-5 165-52 165-140 0-74-42-117-134-133l-31-6V361c34 10 59 37 61 77l95-3c-2-90-57-148-156-158v-58h-54v56c-98 7-158 59-158 142 0 77 50 117 122 129l36 6v103c-39-10-69-37-72-85l-97 3Zm286 35c0 29-24 47-63 51v-97c39 6 63 17 63 46ZM431 408c0-31 20-47 56-51v96c-33-6-56-16-56-45Z" style="fill-rule:nonzero"/>
  <path d="M69 592H0V432h69c12-65 37-125 73-177l-49-48L207 93l48 49c52-36 112-61 177-73V0h160v69c65 12 125 37 177 73l48-49 114 114-49 48c36 52 61 112 73 177h69v160h-69c-12 65-37 125-73 177l49 48-114 114-48-49c-52 36-112 61-177 73v69H432v-69c-65-12-125-37-177-73l-48 49L93 817l49-48c-36-52-61-112-73-177Zm443-470a414 414 0 0 0-390 390c0 199 191 390 390 390s390-191 390-390-191-390-390-390Z"/>
</svg>