<svg xmlns="http://www.w3.org/2000/svg" fill-rule="evenodd" stroke-linejoin="round" stroke-miterlimit="1" clip-rule="evenodd" viewBox="0 0 1024 1024">
  <path d="M296 302c32 27 54 97 54 181 0 45-7 87-18 119 32 74 88 126 184 180 94-50 148-99 178-172-12-34-20-78-20-127 0-84 22-154 54-181-43 10-86 17-129 21l-72 139 47 21-118 194 43-174-23-10-74 20 61-51 45-134c-71 0-141-8-212-26Z"/>
  <path d="M69 592H0V432h69c12-65 37-125 73-177l-49-48L207 93l48 49c52-36 112-61 177-73V0h160v69c65 12 125 37 177 73l48-49 114 114-49 48c36 52 61 112 73 177h69v160h-69c-12 65-37 125-73 177l49 48-114 114-48-49c-52 36-112 61-177 73v69H432v-69c-65-12-125-37-177-73l-48 49L93 817l49-48c-36-52-61-112-73-177Zm443-470a414 414 0 0 0-390 390c0 199 191 390 390 390s390-191 390-390-191-390-390-390Z"/>
</svg>