<!-- https://game-icons.net/1x1/lorc/cycle.html -->
<svg xmlns="http://www.w3.org/2000/svg" fill-rule="evenodd" stroke-linejoin="round" stroke-miterlimit="1" clip-rule="evenodd" viewBox="0 0 1024 1024">
  <path d="M69 592H0V432h69c12-65 37-125 73-177l-49-48L207 93l48 49c52-36 112-61 177-73V0h160v69c65 12 125 37 177 73l48-49 114 114-49 48c36 52 61 112 73 177h69v160h-69c-12 65-37 125-73 177l49 48-114 114-48-49c-52 36-112 61-177 73v69H432v-69c-65-12-125-37-177-73l-48 49L93 817l49-48c-36-52-61-112-73-177Zm443-470a414 414 0 0 0-390 390c0 199 191 390 390 390s390-191 390-390-191-390-390-390Z"/>
  <path d="M283 675a282 282 0 0 1 362-412l-105 12 9 43a198 198 0 0 0-213 283l53-72 37 178-181 20 38-52Zm458-326a282 282 0 0 1-362 412l105-12-9-43a198 198 0 0 0 213-283l-53 72-37-178 181-20-38 52Z"/>
</svg>